# xmcd CD database file
#
# Track frame offsets:
#	150
#	20518
#	39412
#	66101
#	83038
#	104674
#	118786
#	149599
#	158988
#	182076
#	197958
#	222537
#	247516
#	262018
#	283107
#	305373
#
# Disc length: 4364 seconds
#
# Revision: 0
# Processed by: cddbd v1.5.2PL0 Copyright (c) Steve Scherf et al.
# Submitted via: CDex 1.51
#
DISCID=f0110a10
DTITLE=Klazz Brothers and Cuba Percussion - Opera meets Cuba
DYEAR=2007
DGENRE=Jazz
TTITLE0=Macht des Schicksals - G. Verdi
TTITLE1=Cancan - J. Offenbach
TTITLE2=O Mio Babbino Caro - G. Puccini
TTITLE3=Va Pensiero G. Verdi
TTITLE4=Marchin' 5 - G. Verdi
TTITLE5=Lass mich träumen - G. F. Händel
TTITLE6=Tannhäuser - R. Wagner
TTITLE7=Farandole - G. Bizet
TTITLE8=Musette - G. Puccini
TTITLE9=Mambo E Mobile - G. Verdi
TTITLE10=Porgy and Bess - G. Gershwin
TTITLE11=Barcarole - J. Offenbach
TTITLE12=Leise, Leise - C. M. von Weber
TTITLE13=Cuban Rossini - G. Rossini
TTITLE14=Sum Wem Be - G. Verdi
TTITLE15=Abends Will Ich Schlafen Gehen - E. Humperdinck
EXTD=YEAR: 2007
EXTT0=
EXTT1=
EXTT2=
EXTT3=
EXTT4=
EXTT5=
EXTT6=
EXTT7=
EXTT8=
EXTT9=
EXTT10=
EXTT11=
EXTT12=
EXTT13=
EXTT14=
EXTT15=
PLAYORDER=
